<svg viewBox="0 0 498 444" xmlns="http://www.w3.org/2000/svg"><path d="M252.014 87.244a48.745 48.745 0 0 0 21.588 5.028c26.244 0 47.551-20.673 47.551-46.136C321.153 20.673 299.846 0 273.602 0c-23.705 0-43.79 16.94-47.089 39.715l10.36 1.413c2.573-17.765 18.239-30.978 36.729-30.978 20.47 0 37.09 16.125 37.09 35.986 0 19.862-16.62 35.986-37.09 35.986a38.021 38.021 0 0 1-16.839-3.922l-4.749 9.044Z"/><path d="M73.701 116.402c18.916-8.252 56.749-24.754 80.5-13 32.5 16.083 65.167 11.694 81.5 9.5" style="fill:none;stroke:#000;stroke-width:12.08px"/><path d="M244.572 427.743a5.098 5.098 0 0 0-5.096-5.096H64.538a5.098 5.098 0 0 0-5.096 5.096v10.191a5.098 5.098 0 0 0 5.096 5.096h174.938a5.098 5.098 0 0 0 5.096-5.096v-10.191Z"/><path d="M133.004 203.676h38.007v232.366h-38.007z"/><path d="M152.177 234.501 9.594 44.631a7.993 7.993 0 0 1 6.383-12.789l270.474-.203a8.784 8.784 0 0 1 7.04 14.048L152.177 234.501ZM24.163 43.916 152.16 214.364 279.873 43.723l-255.71.193Zm473.086 116.103c0-8.279-6.722-15-15-15H275.451c-8.279 0-15 6.721-15 15 0 8.278 6.721 15 15 15h206.798c8.278 0 15-6.722 15-15Zm0 95.666c0-8.278-6.722-15-15-15H275.451c-8.279 0-15 6.722-15 15 0 8.279 6.721 15 15 15h206.798c8.278 0 15-6.721 15-15Zm0 94.667c0-8.279-6.722-15-15-15H275.451c-8.279 0-15 6.721-15 15s6.721 15 15 15h206.798c8.278 0 15-6.721 15-15Z"/></svg>
