<svg xmlns="http://www.w3.org/2000/svg" viewBox="0 0 80 94" stroke-width="0" fill="#707478"><path d="m54.671 33.905.02-1.596.09-.001c3.52-.025 4.81-1.962 4.84-3.767.01-.683.58-.754 1.89-.754.26 0 .55.003.89.007.42.005.91.01 1.47.01 1.97 0 3.57 1.394 3.57 3.106 0 2.367.02 4.471.03 6.348.09 9.834.13 13.513-2.96 16.515-1.82 1.777-4 2.756-6.14 2.756-1.23 0-2.43-.314-3.58-.933l-.04-.026v-.056c-.19-6.776-.13-13.981-.08-21.609Zm-47.58-2.581c-.03-8.375-.07-17.867.15-28.532l.01-.094h44.53v.094c.26 12.305.22 22.655.17 31.787-.07 15.765-.12 28.217 1.54 40.526-2.18 4.459-12.93 5.074-24.23 5.074-10.96 0-21.46-.571-24.05-4.776 1.99-13.691 1.94-27.101 1.88-44.079Zm36.74 60.007c-2.71 0-6.07-.008-10.26-.018-6.93-.017-16.14-.038-28.38-.038a2.5 2.5 0 0 1-1.97-.957 2.577 2.577 0 0 1-.47-2.181c.77-3.153 1.41-6.25 1.95-9.466l.03-.159.12.1c4.43 3.513 14.35 3.997 24.41 3.997 11.81 0 20.52-.702 24.61-4.13l.13-.108.03.166c.53 3.27 1.17 6.41 1.94 9.6.19.768.02 1.564-.47 2.182l-.13.186c-.46.699-.55.826-11.54.826Zm33.04-41.807c0 .462-.13 11.392-13.54 16.224-3.33 1.413-5.67 3.539-7.05 5.075l-.15.159-.02-.212c-.4-3.694-.67-7.587-.84-11.902l-.01-.136.13.041c.96.304 1.95.458 2.94.458 2.87 0 5.74-1.252 8.07-3.525 3.91-3.812 3.87-8.174 3.77-18.71-.01-1.833-.03-3.852-.03-6.086 0-3.2-2.81-5.804-6.27-5.804-.26 0-1.38-.016-1.68-.016-2.52 0-5.22.263-5.27 3.405-.01.443-.31.992-1.7 1.098l-.1.008v-.104c0-2.181-.02-4.481-.04-6.807l-.03-4.333v-.096h12.91c4.91 0 8.91 3.59 8.91 8.003v23.26Zm-8.91-33.962h-13.32v-.095c0-2.122-.04-7.586-.19-13.947-.02-.853-.7-1.52-1.56-1.52H6.131c-.86 0-1.54.667-1.56 1.52-.25 10.936-.21 20.764-.18 29.435.06 16.648.11 29.798-1.69 43.039-.71 5.218-1.46 8.562-2 11.005-.87 3.873-1.13 5.042.4 6.988a5.177 5.177 0 0 0 4.09 1.987h48.34c1.61 0 3.1-.724 4.1-1.987 1-1.272 1.35-2.907.97-4.487-.97-3.989-1.73-7.995-2.3-12.335.18-.145.43-.48.74-.904 1.07-1.468 3.07-4.201 7.31-6.013 15.14-5.478 15.22-18.201 15.22-18.74V26.264c0-5.901-5.21-10.702-11.61-10.702Z"/></svg>