<svg xmlns="http://www.w3.org/2000/svg" viewBox="0 0 63 92" stroke-width="0" fill="#707478"><path d="m30.634 86.076.03.169c1.31.353 4.1.99 8.09 1.275.67.048 1.13.371 1.38.959H5.744c.26-.588.72-.911 1.39-.959 3.99-.286 6.82-.932 8.15-1.292a4.9 4.9 0 0 0 3.1-2.574c.63-1.286.68-2.785.14-4.111-.49-1.183-.75-2.538-.75-3.916 0-1.817.45-3.584 1.27-4.976.94-1.613.98-3.55.1-5.053a8.61 8.61 0 0 0-.32-.504c1.47.175 2.94.265 4.41.265 1.27 0 2.54-.072 3.79-.209-.1.147-.2.293-.29.447-.88 1.504-.83 3.441.11 5.054.82 1.392 1.27 3.159 1.27 4.976 0 1.378-.26 2.733-.75 3.916a5.04 5.04 0 0 0 .14 4.112 4.91 4.91 0 0 0 3.09 2.572l.04-.151Zm12.79-42.007c-.2-.132-.38-.254-.54-.365-.01-1.756-.08-3.536-.16-5.673-.09-2.457-.2-5.237-.2-8.34 2.29-.361 3.24-1.654 4-2.698.68-.911 1.08-1.46 2.3-1.621 4.44-.593 5.01 1.485 5.71 5.513.42 2.439 1.52 10.69-2.23 14.437-2.63 2.631-5.97.733-8.88-1.253Zm9.9-24.296c2.08.778 6.94 2.601 6.4 18.325-.22 6.15-2.19 10.548-5.73 12.72-3.06 1.885-7.36 2.019-11.51.363.17-1.291.29-2.746.35-4.331 1.65 1.074 4.05 2.401 6.56 2.401 1.8 0 3.41-.694 4.78-2.063 4.52-4.521 3.58-13.224 2.96-16.759-.63-3.637-1.5-8.614-8.65-7.675-2.34.309-3.3 1.619-4.08 2.675-.55.747-.96 1.301-1.85 1.559.05-2.137.16-4.219.33-6.355 2.29-1.309 7.51-1.963 10.44-.86ZM42.924 2.64c-1.28 5.935-2.13 11.464-2.59 16.864a1.19 1.19 0 0 0-.05.555c-.6 7.35-.39 13.046-.2 18.091.08 2.113.16 4.109.16 5.99 0 14.271-3.78 15.712-8.57 17.535-2.07.779-9.62 2.119-18.14-.259-4.46-1.731-7.89-3.685-7.89-17.276 0-1.865.07-3.843.15-5.937v-.075c.32-8.453.72-18.966-2.83-35.488h39.96ZM3.164 38.031c-.09 2.141-.16 4.163-.16 6.109 0 14.971 4.06 17.64 10.26 20.002 1.71.652 2.89 1.563 3.6 2.786.4.683.36 1.598-.1 2.389-1.07 1.817-1.63 3.998-1.63 6.31 0 1.719.33 3.42.94 4.919.26.628.24 1.337-.06 1.945-.3.605-.81 1.022-1.48 1.206-1.22.329-3.82.92-7.59 1.191-1.82.13-3.24 1.255-3.79 3.007-.24.732-.1 1.522.37 2.168.48.651 1.22 1.056 1.94 1.056h34.95c.72 0 1.47-.405 1.94-1.056.47-.646.61-1.436.38-2.167-.55-1.753-1.97-2.878-3.79-3.008-3.77-.27-6.4-.871-7.64-1.205a2.228 2.228 0 0 1-1.43-1.192 2.398 2.398 0 0 1-.07-1.945c.62-1.5.94-3.2.94-4.919 0-2.312-.56-4.494-1.62-6.31-.47-.791-.51-1.707-.11-2.39.72-1.223 1.9-2.133 3.6-2.784 4.39-1.673 7.88-3.499 9.41-10.319 2.09.768 4.18 1.158 6.21 1.158 2.64 0 5.11-.663 7.15-1.916 3.01-1.853 6.67-5.939 6.97-14.876.54-15.618-4.04-19.368-8.1-20.889-3.25-1.217-8.07-.735-11.09.347.53-5.147 1.42-10.396 2.69-16.038.09-.393-.01-.8-.26-1.114A1.311 1.311 0 0 0 44.564 0H1.324c-.4 0-.78.18-1.03.496-.26.314-.35.721-.26 1.114 3.86 17.125 3.45 27.824 3.13 36.421Z"/></svg>