<svg xmlns="http://www.w3.org/2000/svg" viewBox="0 0 36 109" stroke-width="0" fill="#707478"><path d="M32.862 91.876c-1.196 1.496-4.915 3.013-15.076 3.013-10.388 0-14.036-1.585-15.146-3.113V2.7h30.222v89.176ZM2.64 104.424v-9.728c2.463 1.925 7.106 2.814 15.146 2.814 7.78 0 12.489-.833 15.076-2.631v9.545c0 .916-.745 1.661-1.661 1.661H4.3c-.916 0-1.66-.745-1.66-1.661Zm1.66 4.301h26.901a4.307 4.307 0 0 0 4.301-4.301V2.025c.367-1.16-.766-2.301-1.928-1.965H1.508C.675.06 0 .736 0 1.569v102.855a4.306 4.306 0 0 0 4.3 4.301Z"/></svg>