<svg xmlns="http://www.w3.org/2000/svg" viewBox="0 0 190 147" stroke-width="0" fill="#707478"><path d="m164.219 48.697-5.376-3.208-23.309 11.366 1.733-23.269 24.923 4.664 14.482-7.98c6.686 10.54 10.31 27.052 8.951 45.291-1.358 18.237-7.388 34.03-15.561 43.464l-13.141-10.038-25.338.925 1.733-23.273 21.367 14.695 5.793-2.376 7.314 6.681c4.523-8.355 7.643-19.011 8.519-30.772.876-11.762-.631-22.762-3.867-31.695l-8.223 5.525ZM11.294 11.754h118.53a4.2 4.2 0 1 0 0-8.4H11.294a4.2 4.2 0 1 0 0 8.4Z" style="fill:none;stroke-width:3px"/><path d="M10.824 11.754h119.47a168.837 168.837 0 0 1 7.46 49.656 161.02 161.02 0 0 1-21.2 79.855 4.152 4.152 0 0 1-3.6 2.089h-84.79c-1.49 0-2.86-.8-3.6-2.089A160.925 160.925 0 0 1 3.354 61.41c0-16.832 2.52-33.569 7.47-49.656Z" style="fill:none;stroke-width:3px"/></svg>