<svg xmlns="http://www.w3.org/2000/svg" viewBox="0 0 62 66" stroke-width="0" fill="#707478"><path d="M44.685 42.398c-1.86 5.061-8.302 5.763-13.792 5.75-5.49.013-11.932-.689-13.792-5.75L3.216 2.789l27.678.021 27.676-.021-13.885 39.609Zm-2.201 20.758H19.303c-1.537 0-2.71-2.5-2.71-3.52 0-2.379.524-3.449 1.188-4.804.24-.492.489-1.001.736-1.606.554-1.361.696-2.947.447-4.672 3.386 1.972 8.022 2.393 11.929 2.384 3.907.009 8.544-.412 11.929-2.384-.249 1.725-.107 3.311.447 4.672.247.605.496 1.114.736 1.606.664 1.355 1.188 2.425 1.188 4.804 0 1.02-1.173 3.52-2.709 3.52ZM60.466 0H1.32A1.3 1.3 0 0 0 .237.597a1.462 1.462 0 0 0-.156 1.28l15.749 44.98c.507 1.45.964 3.54.26 5.269-.209.513-.436.977-.656 1.426-.729 1.488-1.482 3.027-1.482 6.084 0 2.223 2.032 6.308 5.351 6.308h23.181c3.319 0 5.35-4.085 5.35-6.308 0-3.057-.753-4.596-1.482-6.084-.22-.449-.447-.913-.656-1.426-.704-1.729-.247-3.819.26-5.269l15.749-44.98c.15-.428.092-.906-.156-1.28A1.3 1.3 0 0 0 60.466 0Z"/></svg>