<svg xmlns="http://www.w3.org/2000/svg" viewBox="0 0 66 92" stroke-width="0" fill="#707478"><path d="m33.618 43.662-.061 35.095c-.007 3.838 2.939 6.866 8.521 8.757 1.744.591 3.616.96 6.677 1.317.274.032.485.079.648.135l-33.925-.06c.163-.055.374-.101.649-.132 3.062-.347 4.936-.709 6.682-1.294 5.588-1.871 8.545-4.889 8.552-8.726l.061-35.096c.006-3.453-1.001-6.29-3.041-8.564 1.397.175 2.803.264 4.211.264 1.379 0 2.755-.11 4.124-.278-2.065 2.272-3.091 5.114-3.098 8.582Zm28.881-33.541c-.87 12.063-9.103 16.57-19.066 20.666-6.852 2.554-14.88 2.549-21.727-.015-9.973-4.137-18.218-8.669-19.046-20.756-.071-1.071.404-5.925.982-7.35l57.901.101c.572 1.427 1.03 6.284.956 7.354ZM21.224 33.458c5.219 2.146 7.542 5.29 7.534 10.195l-.062 35.096c-.006 3.266-3.665 5.177-6.734 6.205-1.553.52-3.273.849-6.135 1.172-2.353.266-3.195 1.544-3.488 2.569-.201.705-.083 1.397.333 1.949.429.569 1.154.924 1.892.925l35.744.063c.737.001 1.464-.351 1.895-.918.418-.551.538-1.243.34-1.949-.289-1.025-1.127-2.306-3.479-2.58-2.861-.334-4.579-.668-6.131-1.194-3.065-1.039-6.717-2.963-6.712-6.229l.062-35.096c.008-4.904 2.343-8.04 7.569-10.168 10.659-4.338 20.309-9.376 21.304-23.185.032-.447-.189-7.875-1.775-9.603-.353-.384-.811-.6-1.304-.606L3.102 0c-.478.005-.937.219-1.291.602C.218 2.324-.029 9.752.002 10.199.948 24.01 10.581 29.082 21.224 33.458Z"/></svg>
