<svg xmlns="http://www.w3.org/2000/svg" viewBox="0 0 40 122" stroke-width="0" fill="#707478"><path d="M9.566 52.484C6.843 46.623 5.67 39.361 6.079 30.9 6.695 18.161 8.561 6.258 9.162 2.666l21.152.038c.589 3.593 2.413 15.503 2.985 28.244.379 8.463-.82 15.72-3.564 21.572-1.305 2.783-2.458 4.594-3.755 6.216a8.955 8.955 0 0 1-6.353 2.678 8.785 8.785 0 0 1-6.392-2.783c-1.266-1.606-2.396-3.406-3.669-6.147Zm-6.814 65.81c.138-.298.479-.669 1.522-.754 3.472-.283 5.34-.576 7.404-1.163.448-.127.885-.236 1.306-.341 2.863-.715 6.109-1.526 5.839-7.171l.063-36.054c.007-3.904-.488-6.859-1.494-8.966.731.148 1.479.23 2.235.23.762 0 1.514-.088 2.25-.24-1.019 2.105-1.526 5.064-1.533 8.978l-.062 35.989c-.291 5.709 2.951 6.531 5.812 7.257.42.107.857.217 1.305.346 2.062.594 3.929.894 7.399 1.188 1.033.088 1.376.453 1.518.76l-33.564-.059Zm32.272-3.356c-3.703-.314-5.225-.615-6.889-1.093-.475-.137-.939-.255-1.386-.369-2.819-.715-3.986-1.01-3.804-4.604l.064-36.054c.007-4.575.724-7.649 2.129-9.134 2.844-3.006 4.735-5.181 7.01-10.033 2.929-6.246 4.212-13.925 3.812-22.822-.69-15.373-3.182-29.547-3.207-29.688a1.333 1.333 0 0 0-1.309-1.1L8.042 0a1.332 1.332 0 0 0-1.313 1.095c-.026.141-2.568 14.306-3.311 29.677-.431 8.895.825 16.578 3.731 22.836 2.259 4.859 4.142 7.041 6.975 10.057 1.4 1.49 2.106 4.566 2.098 9.141l-.062 36.12c.167 3.528-1 3.82-3.822 4.525-.447.112-.911.228-1.388.363-1.664.473-3.188.769-6.892 1.07-2.803.228-3.684 1.944-3.958 2.947-.215.779-.082 1.538.373 2.135.464.611 1.24.991 2.025.992l34.064.06a2.597 2.597 0 0 0 2.029-.984c.457-.597.593-1.355.382-2.135-.272-1.004-1.147-2.722-3.949-2.961Z"/></svg>