<svg xmlns="http://www.w3.org/2000/svg" viewBox="0 0 59 92" stroke-width="0" fill="#707478"><path d="M5.228 41.477c-3.47-7.664-2.55-30.473-2.04-38.837h51.72c.52 8.364 1.43 31.173-2.04 38.837-2.35 5.191-5.77 7.993-11.32 9.259-4.49.76-8.77 1.001-12.5.987-3.72.014-8.01-.227-12.5-.987-5.55-1.266-8.96-4.068-11.32-9.259Zm45.14 46.999c.02.1-.05.198-.15.198H7.888a.162.162 0 0 1-.16-.198c1.1-4.05 16.24.934 17.76-11.407.5-4.101.85-8.874.03-15.977-.35-3.004-1.78-5.333-3.38-7.007 2.32.198 4.62.294 6.91.278 2.29.016 4.59-.08 6.91-.278-1.6 1.674-3.03 4.003-3.38 7.007-.82 7.103-.47 11.876.04 15.977 1.51 12.341 16.66 7.357 17.75 11.407Zm-8.96-35.005c17.17-3.443 16.89-20.584 16.62-38.323-.11-7.522-.55-13.686-.56-13.748a1.5 1.5 0 0 0-1.5-1.4H2.128c-.79 0-1.44.611-1.5 1.4-.01.062-.44 6.226-.56 13.748-.27 17.739-.55 34.88 16.62 38.323.75.304 5.57 2.455 6.21 7.924.79 6.828.45 11.413-.03 15.352-1.31 10.652-15.75 3.85-17.68 11.042a2.75 2.75 0 0 0 .48 2.429c.98 1.285-.51 1.206 23.38 1.131 23.89.075 22.4.154 23.39-1.131.53-.696.7-1.581.48-2.429-1.94-7.192-16.38-.39-17.68-11.042-.49-3.939-.83-8.524-.04-15.352.64-5.469 5.46-7.62 6.21-7.924Z"/></svg>