<svg xmlns="http://www.w3.org/2000/svg" viewBox="0 0 43 92" stroke-width="0" fill="#707478"><path d="M40.208 75.08c-1.348 3.463-9.814 3.944-18.772 3.944-8.96 0-17.429-.481-18.772-3.945V2.664h37.544V75.08ZM2.664 85.939v-7.02c3.411 2.21 9.778 2.726 18.772 2.726 8.994 0 15.361-.516 18.772-2.726v7.02a2.655 2.655 0 0 1-2.653 2.651H5.316a2.655 2.655 0 0 1-2.652-2.651Zm2.652 5.316h32.239a5.323 5.323 0 0 0 5.317-5.316V1.332C42.872.596 42.274 0 41.54 0H1.332C.596 0 0 .596 0 1.332v84.607a5.322 5.322 0 0 0 5.316 5.316Z"/></svg>