<svg xmlns="http://www.w3.org/2000/svg" viewBox="0 0 45 104" stroke-width="0" fill="#707478"><path d="M22.43 72.911a16.051 16.051 0 0 1-8.879-2.798C9.136 66.888 2.648 59.702 2.665 50.329c.006-3.865.728-8.081 1.563-12.964 1.554-9.077 3.475-20.296 1.516-34.698l33.512.059c-2.011 14.395-.129 25.622 1.392 34.704.818 4.885 1.525 9.104 1.518 12.969-.017 9.799-7.127 17.17-11.538 20.146a16.012 16.012 0 0 1-8.198 2.366Zm.915 12.728c-.014 8.093 1.943 11.826 6.98 13.313 1.381.408 4.329 1.143 8.539 1.476.691.055 1.178.352 1.452.885l-35.981-.063c.276-.532.764-.828 1.456-.88 4.214-.32 7.162-1.043 8.544-1.446 5.043-1.47 7.013-5.195 7.028-13.288.006-3.537-.241-7.176-2.369-10.463 1.122.222 2.269.345 3.436.359a18.665 18.665 0 0 0 3.317-.341c-2.136 3.277-2.395 6.914-2.402 10.448Zm8.451-12.664c6.002-3.898 13.016-12.15 13.035-22.572.007-4.089-.717-8.41-1.555-13.413-1.543-9.213-3.464-20.679-1.16-35.387a1.336 1.336 0 0 0-.303-1.072 1.34 1.34 0 0 0-1.012-.467L4.207 0a1.33 1.33 0 0 0-1.012.464 1.328 1.328 0 0 0-.307 1.07c2.251 14.715.29 26.174-1.286 35.382C.746 41.917.007 46.236 0 50.325c-.018 10.421 6.968 18.697 12.957 22.617 4.839 3.169 5.751 6.904 5.741 12.689-.015 8.544-2.425 9.953-5.108 10.735-1.283.374-4.028 1.046-8 1.347-1.94.148-3.419 1.325-3.955 3.149-.218.741-.099 1.47.335 2.051.46.616 1.248 1 2.056 1.001l36.591.064c.808.002 1.597-.379 2.059-.993.437-.581.558-1.308.343-2.051-.532-1.826-2.006-3.008-3.944-3.162-3.97-.315-6.714-.997-7.996-1.376-2.68-.791-5.084-2.209-5.069-10.752.01-5.785.935-9.517 5.786-12.669Z"/></svg>