<svg xmlns="http://www.w3.org/2000/svg" viewBox="0 0 67 93" stroke-width="0" fill="#707478"><path d="M15.984 90.146c.161-.055.37-.1.64-.132 3.071-.347 4.941-.71 6.681-1.293 5.59-1.872 8.549-4.889 8.56-8.727l.05-32.504c.01-1.86-.14-3.295-.49-4.44.54.067 1.09.108 1.64.108.539 0 1.06-.041 1.58-.106-.35 1.144-.5 2.58-.5 4.442l-.06 32.504c-.01 3.838 2.94 6.866 8.519 8.757 1.741.589 3.611.959 6.681 1.317.27.032.48.079.64.134l-33.941-.06Zm23.011-51.338a11.123 11.123 0 0 1-5.93 1.729c-2.28 0-4.48-.734-6.15-1.863-3.83-2.54-5.431-7.105-5.66-11.734-.12-2.435-1.94-4.617-4.651-5.558C4.055 17.011 3.555 13.319 2.765 2.667l60.69.107c-.83 10.649-1.34 14.339-13.91 18.666-2.71.931-4.54 3.107-4.67 5.542-.25 4.734-1.891 9.257-5.88 11.826ZM64.895.112 1.335 0a1.324 1.324 0 0 0-1.33 1.43l.06.819c.84 11.412 1.22 16.62 15.669 21.649 1.37.476 2.781 1.643 2.861 3.173.46 9.497 5.53 13.336 8.5 14.78 1.21.586 2.17 1.05 2.16 5.634l-.06 32.505c0 3.265-3.66 5.176-6.73 6.204-1.55.52-3.27.848-6.14 1.173-2.351.267-3.19 1.544-3.49 2.568-.2.705-.08 1.396.34 1.948a2.4 2.4 0 0 0 1.89.926l35.77.063c.74.001 1.47-.351 1.899-.919.411-.551.531-1.242.341-1.946-.29-1.027-1.13-2.307-3.48-2.581-2.871-.335-4.59-.67-6.13-1.195-3.07-1.038-6.72-2.962-6.72-6.228l.06-32.504c.01-4.584.97-5.045 2.179-5.627 2.981-1.434 8.051-5.255 8.551-14.75.08-1.53 1.5-2.692 2.87-3.163 14.47-4.978 14.87-10.185 15.75-21.594l.06-.818a1.333 1.333 0 0 0-1.32-1.435Z"/></svg>