<svg xmlns="http://www.w3.org/2000/svg" viewBox="0 0 67 98" stroke-width="0" fill="#707478"><path d="M22.832 27.691 4.006 2.669l58.078.102-20.26 26.731c-2.902 3.627-6.031 7.143-8.762 7.178-3.273-.042-7.084-5.003-10.23-8.989Zm-8.894 66.781c.159-.315.561-.723 1.782-.816 4.168-.316 6.484-.637 8.544-1.181 4.64-1.23 7.764-4.958 7.771-9.278l.069-39.17a11.996 11.996 0 0 0-1.157-5.12 6.637 6.637 0 0 0 2.115.394 6.485 6.485 0 0 0 1.927-.333 11.994 11.994 0 0 0-1.149 5.062l-.068 39.171c-.008 4.319 3.102 8.058 7.739 9.305 2.057.551 4.371.879 8.539 1.211 1.238.098 1.633.519 1.788.842l-37.9-.087Zm36.324-3.412c-3.991-.316-6.176-.623-8.06-1.128-3.508-.943-5.771-3.583-5.766-6.727l.068-39.17a9.34 9.34 0 0 1 1.884-5.588L65.824 2.249A1.334 1.334 0 0 0 64.765.112L1.335 0A1.333 1.333 0 0 0 .268 2.133l27.308 36.295a9.34 9.34 0 0 1 1.864 5.594l-.069 39.171c-.006 3.143-2.278 5.776-5.789 6.706-1.887.499-4.073.798-8.064 1.1-2.986.227-3.933 1.96-4.231 2.972-.227.774-.104 1.534.348 2.139.481.644 1.306 1.045 2.154 1.047l38.18.067c.847.001 1.674-.397 2.158-1.04.453-.604.58-1.363.355-2.137-.295-1.013-1.235-2.749-4.22-2.987Z"/></svg>