<svg xmlns="http://www.w3.org/2000/svg" viewBox="0 0 43 103" stroke-width="0" fill="#707478"><path d="M27.891 73.999c-1.22 2.151-3.37 3.174-6.76 3.174-3.39 0-5.55-1.029-6.77-3.195C9.071 60.841-.319 35.743 3.551 2.803c5.51-.017 29.65-.017 35.17 0 3.86 32.958-5.53 58.066-10.83 71.196Zm7.07 21.843c1.61.644 3.83 1.525 3.89 2.272.06.636-.11.839-.17.905-.18.21-.72.564-2.31.564H5.901c-1.59 0-2.13-.354-2.32-.564-.05-.067-.23-.269-.17-.904.07-.748 2.28-1.629 3.9-2.273 3.51-1.397 7.88-3.136 8.74-7.823.18-.993-.16-2.064-.93-2.939-.41-.469-.61-.941-.61-1.404 0-.732.51-1.354.94-1.747.84-.756 1.19-1.801.98-2.747 1.35.511 2.91.781 4.7.781 1.8 0 3.36-.272 4.71-.782-.22.946.14 1.992.97 2.748.43.393.95 1.015.95 1.747 0 .464-.21.936-.62 1.402-.77.878-1.1 1.95-.92 2.942.85 4.686 5.22 6.425 8.74 7.822Zm6.23-94.609c-.08-.635-.56-1.13-1.16-1.201-.36-.043-37.44-.043-37.79 0-.6.071-1.08.566-1.16 1.201-4.54 35.915 6.36 62.784 11.61 75.697.41 1.011.78 1.944 1.12 2.798l-.08.089c-1.22 1.109-1.86 2.444-1.86 3.859 0 1.169.45 2.307 1.31 3.294.23.258.28.469.27.523-.57 3.155-4.03 4.528-7.07 5.74-2.77 1.1-5.38 2.139-5.6 4.621-.14 1.539.39 2.504.85 3.042.86.992 2.25 1.475 4.27 1.475h30.47c2.01 0 3.41-.483 4.26-1.475.47-.538.99-1.502.85-3.042-.22-2.482-2.83-3.521-5.59-4.621-3.05-1.212-6.5-2.585-7.08-5.74-.01-.055.05-.264.27-.524.86-.985 1.32-2.124 1.32-3.293 0-1.416-.65-2.75-1.87-3.859l-.08-.089c.34-.853.72-1.787 1.13-2.798 5.24-12.913 16.15-39.782 11.61-75.697Z"/></svg>