<svg xmlns="http://www.w3.org/2000/svg" viewBox="0 0 51 60" stroke-width="0" fill="#707478"><path d="M48.177 39.827c-.802 3.872-3.118 5.363-22.756 5.363-19.639 0-21.955-1.491-22.757-5.363V2.665h45.513v37.162ZM5.218 56.551a2.557 2.557 0 0 1-2.554-2.554v-9.195c2.974 2.292 9.135 3.009 22.757 3.009 13.624 0 19.783-.719 22.756-3.012v9.198a2.557 2.557 0 0 1-2.555 2.554H5.218Zm0 2.664h40.404a5.224 5.224 0 0 0 5.219-5.218V1.333C50.841.597 50.245 0 49.509 0H1.332C.596 0 0 .597 0 1.333v52.664a5.224 5.224 0 0 0 5.218 5.218Z"/></svg>