<svg xmlns="http://www.w3.org/2000/svg" viewBox="0 0 57 93" stroke-width="0" fill="#707478"><path d="m45.345 90.802.01-.001-.01.001Zm-17.09-9.083c-15.25 0-17.88-.979-18.64-3.484-3.53-42.935-3.1-40.29-4.63-44.017-4.93-12.064-.07-12.686-.83-21.767l-.95-9.71h50.03c-.92 9.967-1.37 12.082-.52 15.843 2.99 13.092-1.95 12.868-2.69 21.784-1.57 18.879-2.47 30.507-3.06 37.669-.7 2.651-3.06 3.682-18.71 3.682Zm16.81 7.732c-35.71 0-34.5.382-34.6-.891-.18-2.103-.34-4.108-.5-6.039 2.77 1.39 8.01 1.819 18.29 1.819 10.32 0 15.56-.433 18.33-1.835-.67 7.64-.82 6.946-1.52 6.946Zm10-76.757 1.02-11.128c0-.854-.68-1.566-1.56-1.566H1.915C.985 0 .265.798.355 1.718c1.11 11.382 1.5 12.968.75 16.254-1.77 7.766-1.48 10.37 1.35 17.283.66 1.63 1.1 3.185 1.28 5.339l4 48.192c.15 1.91 1.78 3.406 3.7 3.406h33.63c1.91 0 3.54-1.496 3.7-3.406l3.99-48.192c.67-8.09 5.82-8.674 2.62-22.706-.39-1.695-.45-3.454-.31-5.194Z"/></svg>