<svg xmlns="http://www.w3.org/2000/svg" viewBox="0 0 56 117" stroke-width="0" fill="#707478"><path d="M8.665 2.664h38.309c1.391 4.537 7.277 24.576 5.756 34.008-1.195 7.408-6.08 14.048-13.07 17.761-1.937 1.03-4.413 3.077-11.882 3.077-7.367 0-10.258-2.258-11.8-3.077C8.99 50.72 4.105 44.08 2.909 36.672 1.388 27.24 7.274 7.201 8.665 2.664Zm-.611 111.023c.137-.343.513-.859 1.929-.969 4.321-.335 6.719-.671 8.849-1.239 4.788-1.278 8.005-5.13 8.005-9.587V69.284c0-4.124-1.123-7.029-3.257-9.424 1.329.176 2.723.271 4.198.271 1.536 0 2.966-.118 4.327-.322-2.165 2.404-3.303 5.322-3.303 9.475v32.608c0 4.457 3.217 8.309 8.005 9.587 2.131.568 4.529.904 8.85 1.239 1.398.109 1.781.613 1.926.969H8.054Zm37.809-3.625c-4.143-.322-6.411-.636-8.369-1.158-3.662-.977-6.027-3.729-6.027-7.012V69.284c0-6.399 2.913-9.027 9.445-12.498 7.72-4.103 13.121-11.463 14.448-19.69 1.815-11.25-5.812-35.159-6.137-36.172A1.333 1.333 0 0 0 47.954 0H7.685c-.579 0-1.092.373-1.269.924C6.091 1.937-1.536 25.846.279 37.096c1.327 8.227 6.728 15.587 14.449 19.69l.026.014c3.894 2.447 9.419 4.226 9.419 12.484v32.608c0 3.283-2.366 6.035-6.028 7.012-1.957.522-4.225.836-8.368 1.158-3.068.237-4.035 2.015-4.339 3.054-.23.788-.104 1.56.357 2.174.491.655 1.332 1.062 2.196 1.062h39.657c.864 0 1.705-.407 2.196-1.063.461-.614.587-1.385.357-2.173-.303-1.038-1.271-2.817-4.338-3.054Z"/></svg>