<svg xmlns="http://www.w3.org/2000/svg" viewBox="0 0 49 58" stroke-width="0" fill="#707478"><path d="M43.023 27.536c-.048.407-.22.811-.434 1.253-3.967-2.104-8.53-.206-10.283.601-3.98-2.246-12.248-2.246-16.228 0-1.754-.806-6.316-2.703-10.282-.601-.214-.442-.386-.846-.435-1.253L2.724 2.697h42.937l-2.638 24.839Zm-4.031 26.519c-.129.118-.544.344-1.219.344h-5.749l1.434-22.597c1.564-.699 5.257-2.213 8.167-.51-.02.108-.049.211-.062.324l-2.571 22.439ZM17.477 31.651c3.167-1.645 10.263-1.645 13.431 0l-1.445 22.748H18.718l-1.241-22.748ZM9.19 54.055 6.821 31.616c-.013-.113-.041-.215-.061-.323 2.9-1.691 6.599-.183 8.166.512l1.231 22.594h-5.75c-.673 0-1.09-.226-1.217-.344ZM48.065.456A1.248 1.248 0 0 0 47.108 0H1.277C.911 0 .562.166.319.456c-.242.29-.355.676-.309 1.06l2.818 26.355c.117.99.515 1.791.865 2.498.286.577.534 1.076.594 1.582l2.38 22.541c.178 1.509 1.751 2.603 3.74 2.603h27.366c1.99 0 3.563-1.094 3.741-2.602l2.583-22.542c.06-.506.308-1.005.595-1.582.35-.707.747-1.508.865-2.498l2.818-26.355a1.395 1.395 0 0 0-.31-1.06Z"/></svg>