<svg xmlns="http://www.w3.org/2000/svg" viewBox="0 0 50 76" stroke-width="0" fill="#707478"><path d="m25.69 58.586.001.377c0 9.254 3.276 10.863 7.559 12.005 1.981.53 4.209.842 8.221 1.153 1.071.084 1.469.42 1.638.704H6.778c.167-.282.564-.62 1.639-.704 4.012-.311 6.24-.623 8.221-1.153 4.283-1.142 7.559-2.751 7.559-12.005l.001-.377c.009-2.501.019-6.196-3.555-9.596 1.348.155 2.796.258 4.301.258 1.506 0 2.953-.103 4.301-.258-3.574 3.4-3.564 7.095-3.555 9.596ZM39.473 2.664c1.577 3.095 7.751 15.875 7.751 26.244 0 9.925-5.627 13.695-11.225 16.022-1.37.423-5.923 1.697-11.055 1.697-5.117 0-9.684-1.275-11.056-1.697C8.29 42.602 2.665 38.832 2.665 28.908c0-10.369 6.173-23.149 7.75-26.244h29.058ZM13.167 47.518c8.396 3.421 8.379 7.655 8.366 11.058l-.001.387c0 7.943-2.341 8.567-5.581 9.431-1.808.483-3.906.773-7.741 1.07-2.902.226-3.819 1.915-4.107 2.9-.222.761-.099 1.507.346 2.101.473.632 1.282 1.024 2.114 1.024h36.762c.831 0 1.641-.392 2.114-1.024.445-.594.569-1.339.346-2.1-.289-.986-1.206-2.675-4.107-2.901-3.835-.297-5.933-.587-7.741-1.07-3.24-.864-5.581-1.488-5.581-9.431l-.001-.387c-.014-3.403-.03-7.637 8.366-11.059 6.131-2.497 13.167-6.87 13.167-18.609 0-12.509-8.09-27.576-8.435-28.211A1.332 1.332 0 0 0 40.282 0H9.606c-.488 0-.938.267-1.171.697C8.09 1.332 0 16.399 0 28.908c0 11.739 7.037 16.112 13.167 18.61Z"/></svg>