<svg xmlns="http://www.w3.org/2000/svg" viewBox="0 0 99 219" stroke-width="0" fill="#707478"><path d="m54.986 76.424 38.81-14.683a2.75 2.75 0 0 0 1.44-3.875l-3.01-5.537-42.88 16.197-42.87-16.197-3.019 5.537a2.749 2.749 0 0 0 1.44 3.875l38.81 14.683v13.54L7.056 103.829a7.896 7.896 0 0 0-5.099 7.387v93.833c0 6.232 5.049 11.283 11.279 11.283h72.221c6.23 0 11.279-5.051 11.279-11.283v-93.833a7.895 7.895 0 0 0-5.1-7.387l-36.65-13.865v-13.54Z" style="fill:none;stroke:#000;stroke-width:1.75px"/><path d="M1.957 1.957v45.548a4.507 4.507 0 0 0 2.919 4.221l44.47 16.8 44.47-16.8a4.508 4.508 0 0 0 2.92-4.221V1.957H1.957Zm41.75 74.467L8.066 62.94c-2.95-1.117-6.109 1.065-6.109 4.221v32.066c0 3.156 3.159 5.338 6.109 4.221l35.641-13.484v-13.54Zm11.279 13.54 35.64 13.484c2.95 1.117 6.11-1.065 6.11-4.221V67.161c0-3.156-3.16-5.338-6.11-4.221l-35.64 13.484v13.54Zm5.74 15.796c7.66 0 12.5 7.393 8.78 13.41l-2.76 4.463c-3.51 5.682-10.17 9.206-17.4 9.206-7.23 0-13.889-3.524-17.399-9.206l-2.76-4.463c-3.72-6.017 1.119-13.41 8.78-13.41m30.089 62.286-12.879-5.452a14.962 14.962 0 0 0-11.661 0l-12.88 5.452c-9.86 4.173-20.78-3.064-20.78-13.77s10.92-17.943 20.78-13.77l12.88 5.453a14.962 14.962 0 0 0 11.661 0l12.879-5.453c9.861-4.173 20.78 3.064 20.78 13.77s-10.919 17.943-20.78 13.77Zm-28.859 34.747H1.957V191.51h37.24a3.386 3.386 0 0 1 3.379 3.385v4.513a3.387 3.387 0 0 1-3.379 3.385Zm57.539 0h-37.24a3.387 3.387 0 0 1-3.38-3.385v-4.513c0-1.87 1.52-3.385 3.38-3.385h37.24v11.283Z" style="fill:none;stroke:#000;stroke-width:1.75px"/><path d="M58.376 26.779h-18.06a5.643 5.643 0 0 1-5.639-5.641 5.643 5.643 0 0 1 5.639-5.641h18.06c3.11 0 5.64 2.525 5.64 5.641a5.643 5.643 0 0 1-5.64 5.641Zm38.36 0h-19.18a5.637 5.637 0 0 1-5.639-5.641 5.637 5.637 0 0 1 5.639-5.641h19.18v11.282Zm-75.6 0H1.957V15.497h19.179c3.12 0 5.64 2.525 5.64 5.641a5.637 5.637 0 0 1-5.64 5.641Z" style="fill:none;stroke:#000;stroke-width:1.75px"/></svg>