<svg xmlns="http://www.w3.org/2000/svg" viewBox="0 0 37 84" stroke-width="0" fill="#707478"><path d="M11.327 48.562a14.242 14.242 0 0 1-8.519-15.285c.574-4.454 1.337-6.993 2.076-9.448 1.291-4.291 2.512-8.352 2.591-21.165h21.211c.079 12.813 1.301 16.874 2.591 21.165.74 2.455 1.503 4.994 2.077 9.448a14.243 14.243 0 0 1-8.519 15.285c-.102.04-6.299 2.822-13.508 0Zm19.39 31.194c1.278.186 1.627.608 1.76.93H3.682c.122-.306.46-.741 1.763-.93 3.35-.486 4.271-.641 5.437-.838l.814-.137c3.61-.602 5.443-2.015 5.443-8.053l.162-12.29c0-2.803-.403-4.716-1.104-6.101.626.053 1.254.089 1.885.089.63 0 1.259-.038 1.886-.091-.704 1.388-1.107 3.307-1.107 6.121l.162 12.254c0 6.056 1.833 7.469 5.443 8.071l.807.135c1.167.198 2.088.353 5.444.84Zm-4.911-28.712c4.123-1.615 11.559-7.476 10.19-18.107-.601-4.671-1.398-7.317-2.167-9.876-1.276-4.242-2.482-8.25-2.482-21.729C31.347.596 30.751 0 30.015 0H6.146C5.41 0 4.814.596 4.814 1.332c0 13.479-1.206 17.487-2.481 21.729-.77 2.559-1.566 5.205-2.167 9.876-1.37 10.631 6.067 16.492 10.19 18.107 2.669 1.044 4.281 1.674 4.281 7.377l-.163 12.289c0 4.906-1.075 5.085-3.216 5.442l-.82.139c-1.148.194-2.056.347-5.376.828-2.195.319-3.543 1.342-4.006 3.04-.218.797-.082 1.572.384 2.182a2.654 2.654 0 0 0 2.074 1.01h29.134c.803 0 1.598-.388 2.074-1.01.465-.61.602-1.385.384-2.182-.464-1.698-1.812-2.721-4.007-3.04-3.325-.482-4.232-.635-5.381-.829l-.814-.138c-2.142-.357-3.217-.536-3.217-5.459l-.162-12.255c0-5.72 1.611-6.35 4.281-7.394Z"/></svg>