<svg xmlns="http://www.w3.org/2000/svg" viewBox="0 0 45 126" stroke-width="0" fill="#707478"><path d="m13.665 54.073-.284-.336C8.443 47.919 3.336 41.904 3.336 32.626c0-12.602 4.529-26.42 5.767-29.962h25.914c1.239 3.541 5.767 17.348 5.767 29.962 0 9.278-5.107 15.293-10.045 21.111l-.232.274c-2.714 3.024-5.171 4.245-8.524 4.245-3.273 0-5.611-1.168-8.318-4.183Zm7.38 58.328V74.834c0-6.089-.138-10.28-2.51-14.395 1.08.294 2.217.438 3.448.438 1.29 0 2.488-.157 3.628-.479-2.395 4.128-2.536 8.326-2.536 14.436v37.567c0 5.1 4.049 6.868 8.009 7.925 2.331.622 4.445.934 8.377 1.24 1.4.109 1.785.614 1.929.971H2.728c.137-.344.513-.861 1.931-.971 3.932-.306 6.046-.618 8.377-1.24 3.96-1.057 8.009-2.825 8.009-7.925Zm-18.379 12.8h38.789c.863 0 1.705-.407 2.196-1.062.46-.614.587-1.386.357-2.175-.304-1.038-1.272-2.816-4.34-3.055-4.24-.329-5.986-.648-7.897-1.158-4.453-1.188-6.032-2.588-6.032-5.35V74.834c0-6.543.142-10.44 3.052-14.45 1.179-1.623 2.539-3.226 3.98-4.923 5.004-5.896 10.677-12.578 10.677-22.835 0-15.019-5.992-31.087-6.247-31.764A1.33 1.33 0 0 0 35.955 0H8.165a1.33 1.33 0 0 0-1.246.862C6.664 1.539.672 17.607.672 32.626c0 10.257 5.672 16.939 10.677 22.835 1.441 1.697 2.801 3.3 3.98 4.923 2.91 4.01 3.052 7.907 3.052 14.45v37.567c0 2.762-1.578 4.162-6.032 5.35-1.911.51-3.657.829-7.896 1.158-3.069.239-4.037 2.017-4.341 3.055-.23.788-.103 1.56.357 2.175.491.655 1.333 1.062 2.197 1.062Z"/></svg>